<?xml version="1.0" standalone="no"?><!DOCTYPE svg PUBLIC "-//W3C//DTD SVG 1.1//EN" "http://www.w3.org/Graphics/SVG/1.1/DTD/svg11.dtd"><svg t="1718435369297" class="icon" viewBox="0 0 1024 1024" version="1.1" xmlns="http://www.w3.org/2000/svg" p-id="9118" xmlns:xlink="http://www.w3.org/1999/xlink" width="200" height="200"><path d="M995.453738 285.767442L735.881645 28.576744c-9.525581-9.525581-19.051163-16.669767-30.95814-21.432558-23.813953-9.525581-50.009302-9.525581-76.204651 0-23.813953 9.525581-42.865116 28.576744-54.772093 52.390698l-40.483721 90.493023-169.07907 166.697674-190.511628 16.669768c-38.102326 2.381395-71.44186 28.576744-85.730232 64.297674-14.288372 35.72093-4.762791 76.204651 23.813953 102.4l171.460465 171.460465L0.030482 954.939535 69.090947 1024l283.386046-283.386047 166.697675 166.697675c28.576744 26.195349 69.060465 35.72093 104.781395 23.813953s61.916279-47.627907 64.297675-85.730232l14.288372-188.130233 171.460465-171.460465 90.493023-40.483721c28.576744-11.906977 50.009302-40.483721 57.153489-71.44186s-2.381395-64.297674-26.195349-88.111628z m-178.604651 116.688372l-211.944187 209.562791-16.669767 223.851162-407.218605-404.837209 230.995349-16.669767L619.193273 204.8l47.627907-107.162791 257.190697 257.190698-107.16279 47.627907z" fill="#007fff" p-id="9119"></path></svg>