<?xml version="1.0" standalone="no"?><!DOCTYPE svg PUBLIC "-//W3C//DTD SVG 1.1//EN" "http://www.w3.org/Graphics/SVG/1.1/DTD/svg11.dtd"><svg t="1718165808179" class="icon" viewBox="0 0 1024 1024" version="1.1" xmlns="http://www.w3.org/2000/svg" p-id="5918" xmlns:xlink="http://www.w3.org/1999/xlink" width="200" height="200"><path d="M803.43552 1024H144.00512c-60.69248 0-109.90592-49.23904-109.90592-109.97248V180.992c0-60.73344 49.20832-109.94688 109.90592-109.94688H656.896c46.94528 0 46.94528 73.28256 0 73.28256H144.00512c-19.47648 0-36.65408 17.1776-36.65408 36.6592V914.0224c0 19.47648 17.18272 36.65408 36.65408 36.65408H803.4304c19.47648 0 36.65408-17.1776 36.65408-36.65408V327.58784c0-46.98112 73.25184-46.98112 73.25184 0V914.0224c0.00512 60.73856-49.20832 109.9776-109.9008 109.9776zM561.8688 427.2384c-13.71648-16.04608-13.71648-36.6592 0-52.66944l364.0576-364.25728a38.76352 38.76352 0 0 1 52.66944 0c12.59008 13.75232 14.88896 28.63616 5.72928 44.68224l-5.72928 8.02304-364.05248 364.22144a38.77376 38.77376 0 0 1-52.67456 0z m-124.78976 10.32192H217.25696c-46.94016 0-46.94016-73.31328 0-73.31328h219.82208c46.9504 0 46.9504 73.31328 0 73.31328z m219.82208 219.88864H217.25696c-46.94016 0-46.94016-73.28256 0-73.28256h439.64416c46.94528 0 46.94528 73.28256 0 73.28256z" fill="#ffffff" p-id="5919"></path></svg>