<?xml version="1.0" standalone="no"?><!DOCTYPE svg PUBLIC "-//W3C//DTD SVG 1.1//EN" "http://www.w3.org/Graphics/SVG/1.1/DTD/svg11.dtd"><svg t="1718435403422" class="icon" viewBox="0 0 1025 1024" version="1.1" xmlns="http://www.w3.org/2000/svg" p-id="10258" xmlns:xlink="http://www.w3.org/1999/xlink" width="200.1953125" height="200"><path d="M893.127805 316.690732v507.50439c0 32.068683-12.487805 62.139317-35.065756 84.817171-22.677854 22.577951-52.748488 35.065756-84.817171 35.065756H251.754146c-32.068683 0-62.139317-12.487805-84.81717-35.065756-22.577951-22.677854-35.065756-52.748488-35.065756-84.817171V316.690732h761.256585m19.980488-79.921952H111.890732c-33.067707 0-59.941463 26.873756-59.941464 59.941464v527.484878c0 110.392195 89.412683 199.804878 199.804878 199.804878h521.490732c110.392195 0 199.804878-89.412683 199.804878-199.804878V296.710244c0-33.067707-26.873756-59.941463-59.941463-59.941464z" fill="#007fff" p-id="10259"></path><path d="M944.078049 158.844878v75.925854H80.920976v-75.925854h863.157073m19.980488-79.921951H60.940488c-33.067707 0-59.941463 26.873756-59.941464 59.941463v115.88683c0 33.067707 26.873756 59.941463 59.941464 59.941463h903.118049c33.067707 0 59.941463-26.873756 59.941463-59.941463V138.86439c0-33.067707-26.873756-59.941463-59.941463-59.941463z" fill="#007fff" p-id="10260"></path><path d="M594.419512 0.999024H430.579512c-33.067707 0-59.941463 26.873756-59.941463 59.941464v35.964878c0 33.067707 26.873756 59.941463 59.941463 59.941463h163.84c33.067707 0 59.941463-26.873756 59.941464-59.941463V60.940488c0-33.067707-26.873756-59.941463-59.941464-59.941464zM512.499512 888.832c-22.078439 0-39.960976-17.882537-39.960975-39.960976V409.500098c0-22.078439 17.882537-39.960976 39.960975-39.960976s39.960976 17.882537 39.960976 39.960976v439.470829c0 21.978537-17.882537 39.861073-39.960976 39.861073zM754.263415 888.832c-22.078439 0-39.960976-17.882537-39.960976-39.960976V409.500098c0-22.078439 17.882537-39.960976 39.960976-39.960976s39.960976 17.882537 39.960975 39.960976v439.470829c0 21.978537-17.882537 39.861073-39.960975 39.861073zM270.73561 888.832c-22.078439 0-39.960976-17.882537-39.960976-39.960976V409.500098c0-22.078439 17.882537-39.960976 39.960976-39.960976s39.960976 17.882537 39.960975 39.960976v439.470829c0 21.978537-17.882537 39.861073-39.960975 39.861073z" fill="#007fff" p-id="10261"></path></svg>